<svg width="508" height="339" fill="none" xmlns="http://www.w3.org/2000/svg"><g clip-path="url(#clip0)" stroke="#000" stroke-width="3"><path d="M423.854 96.219c-1.256 20.889 16.826 60.985 6.669 83.529-26.137 58.015-26.309-40.711-6.669-83.53zm-69.601 60.414c7.421 22.321 9.621 74.067-40.946 102.476-50.567 28.409 6.228-56.481 40.946-102.476zm-1.867-1.99c-10.595-17.833-42.142-52.118-83.567-46.587-41.426 5.53 38.451 33.362 83.567 46.587zm-102.409 44.253c-8.255-17.357-34.239-51.72-71.664-55.644-90.653-9.503-1.651 31.681 71.664 55.644zm223.98-177.99c-27.654 65.18-132.841 194.921-332.352 192.45M33.75 175.705c33.008 40.184 78.211 37.532 107.852 37.651-8.975.002-51.856-54.763-106.423-41.225-1.211.324-3.193 1.493-1.428 3.574z"/><path d="M250.288 203.293c-14.202 13.104-56.032 28.854-60.484 64.058-7.07 55.897 40.829-1.254 60.484-64.058z"/></g><defs><clipPath id="clip0"><path fill="#fff" d="M0 0h508v339H0z"/></clipPath></defs></svg>